<mxfile host="app.diagrams.net" agent="Mozilla/5.0 (Windows NT 10.0; Win64; x64) AppleWebKit/537.36 (KHTML, like Gecko) Chrome/137.0.0.0 Safari/537.36" version="27.1.6">
  <diagram name="Page-1" id="_2iXKkxpdoJ6n9WBTKUK">
    <mxGraphModel dx="5210" dy="2635" grid="1" gridSize="10" guides="1" tooltips="1" connect="1" arrows="1" fold="1" page="1" pageScale="1" pageWidth="3300" pageHeight="4681" math="0" shadow="0">
      <root>
        <mxCell id="0" />
        <mxCell id="1" parent="0" />
        <mxCell id="vbey21bKtDM6WdkLPHSO-1" value="Start spel" style="whiteSpace=wrap;strokeWidth=2;fillColor=#f8cecc;strokeColor=#b85450;" vertex="1" parent="1">
          <mxGeometry x="2319" y="300" width="129" height="54" as="geometry" />
        </mxCell>
        <mxCell id="vbey21bKtDM6WdkLPHSO-2" value="Vraag teamnamen" style="whiteSpace=wrap;strokeWidth=2;fillColor=#d5e8d4;strokeColor=#82b366;" vertex="1" parent="1">
          <mxGeometry x="2059" y="404" width="189" height="54" as="geometry" />
        </mxCell>
        <mxCell id="vbey21bKtDM6WdkLPHSO-3" value="Initialiseer scores en ballenbak" style="whiteSpace=wrap;strokeWidth=2;fillColor=#d5e8d4;strokeColor=#82b366;" vertex="1" parent="1">
          <mxGeometry x="2023" y="508" width="260" height="78" as="geometry" />
        </mxCell>
        <mxCell id="vbey21bKtDM6WdkLPHSO-4" value="Genereer bingo-kaarten" style="whiteSpace=wrap;strokeWidth=2;fillColor=#d5e8d4;strokeColor=#82b366;" vertex="1" parent="1">
          <mxGeometry x="2038" y="636" width="231" height="54" as="geometry" />
        </mxCell>
        <mxCell id="vbey21bKtDM6WdkLPHSO-5" value="Is de ballenbak leeg?" style="rhombus;strokeWidth=2;whiteSpace=wrap;fillColor=#dae8fc;strokeColor=#6c8ebf;" vertex="1" parent="1">
          <mxGeometry x="2052" y="740" width="203" height="203" as="geometry" />
        </mxCell>
        <mxCell id="vbey21bKtDM6WdkLPHSO-6" value="Start nieuwe ronde" style="whiteSpace=wrap;strokeWidth=2;fillColor=#d5e8d4;strokeColor=#82b366;" vertex="1" parent="1">
          <mxGeometry x="1367" y="1015" width="197" height="54" as="geometry" />
        </mxCell>
        <mxCell id="vbey21bKtDM6WdkLPHSO-7" value="Kies willekeurig woord" style="whiteSpace=wrap;strokeWidth=2;fillColor=#d5e8d4;strokeColor=#82b366;" vertex="1" parent="1">
          <mxGeometry x="1355" y="1119" width="221" height="54" as="geometry" />
        </mxCell>
        <mxCell id="vbey21bKtDM6WdkLPHSO-8" value="Toon eerste letter" style="whiteSpace=wrap;strokeWidth=2;fillColor=#d5e8d4;strokeColor=#82b366;" vertex="1" parent="1">
          <mxGeometry x="1371" y="1223" width="189" height="54" as="geometry" />
        </mxCell>
        <mxCell id="vbey21bKtDM6WdkLPHSO-9" value="Beurt team met 5 pogingen" style="whiteSpace=wrap;strokeWidth=2;fillColor=#d5e8d4;strokeColor=#82b366;" vertex="1" parent="1">
          <mxGeometry x="1338" y="1327" width="256" height="54" as="geometry" />
        </mxCell>
        <mxCell id="vbey21bKtDM6WdkLPHSO-10" value="Nog pogingen over?" style="rhombus;strokeWidth=2;whiteSpace=wrap;fillColor=#dae8fc;strokeColor=#6c8ebf;" vertex="1" parent="1">
          <mxGeometry x="1370" y="1431" width="192" height="192" as="geometry" />
        </mxCell>
        <mxCell id="vbey21bKtDM6WdkLPHSO-11" value="Speler invoer van 5 letters" style="whiteSpace=wrap;strokeWidth=2;fillColor=#d5e8d4;strokeColor=#82b366;" vertex="1" parent="1">
          <mxGeometry x="1005" y="1696" width="250" height="54" as="geometry" />
        </mxCell>
        <mxCell id="vbey21bKtDM6WdkLPHSO-12" value="Is het woord correct?" style="rhombus;strokeWidth=2;whiteSpace=wrap;fillColor=#dae8fc;strokeColor=#6c8ebf;" vertex="1" parent="1">
          <mxGeometry x="1035" y="1822" width="205" height="205" as="geometry" />
        </mxCell>
        <mxCell id="vbey21bKtDM6WdkLPHSO-13" value="Woord is goed geraden" style="whiteSpace=wrap;strokeWidth=2;fillColor=#d5e8d4;strokeColor=#82b366;" vertex="1" parent="1">
          <mxGeometry x="840" y="2100" width="223" height="54" as="geometry" />
        </mxCell>
        <mxCell id="vbey21bKtDM6WdkLPHSO-14" value="Update score: +1 goed, reset fout" style="whiteSpace=wrap;strokeWidth=2;fillColor=#d5e8d4;strokeColor=#82b366;" vertex="1" parent="1">
          <mxGeometry x="821" y="2226" width="260" height="78" as="geometry" />
        </mxCell>
        <mxCell id="vbey21bKtDM6WdkLPHSO-15" value="Trek eerste bal" style="whiteSpace=wrap;strokeWidth=2;fillColor=#d5e8d4;strokeColor=#82b366;" vertex="1" parent="1">
          <mxGeometry x="868" y="2354" width="167" height="54" as="geometry" />
        </mxCell>
        <mxCell id="vbey21bKtDM6WdkLPHSO-16" value="Welke bal?" style="rhombus;strokeWidth=2;whiteSpace=wrap;fillColor=#dae8fc;strokeColor=#6c8ebf;" vertex="1" parent="1">
          <mxGeometry x="886" y="2458" width="130" height="130" as="geometry" />
        </mxCell>
        <mxCell id="vbey21bKtDM6WdkLPHSO-17" value="+1 groene bal" style="whiteSpace=wrap;strokeWidth=2;fillColor=#d5e8d4;strokeColor=#82b366;" vertex="1" parent="1">
          <mxGeometry x="410" y="2989" width="158" height="54" as="geometry" />
        </mxCell>
        <mxCell id="vbey21bKtDM6WdkLPHSO-18" value="+1 rode bal" style="whiteSpace=wrap;strokeWidth=2;fillColor=#d5e8d4;strokeColor=#82b366;" vertex="1" parent="1">
          <mxGeometry x="618" y="2989" width="141" height="54" as="geometry" />
        </mxCell>
        <mxCell id="vbey21bKtDM6WdkLPHSO-19" value="Markeer getal op kaart" style="whiteSpace=wrap;strokeWidth=2;fillColor=#d5e8d4;strokeColor=#82b366;" vertex="1" parent="1">
          <mxGeometry x="808" y="2989" width="223" height="54" as="geometry" />
        </mxCell>
        <mxCell id="vbey21bKtDM6WdkLPHSO-20" value="Trek tweede bal" style="whiteSpace=wrap;strokeWidth=2;fillColor=#d5e8d4;strokeColor=#82b366;" vertex="1" parent="1">
          <mxGeometry x="1365" y="2660" width="176" height="54" as="geometry" />
        </mxCell>
        <mxCell id="vbey21bKtDM6WdkLPHSO-21" value="Welke bal?" style="rhombus;strokeWidth=2;whiteSpace=wrap;fillColor=#dae8fc;strokeColor=#6c8ebf;" vertex="1" parent="1">
          <mxGeometry x="1388" y="2787" width="130" height="130" as="geometry" />
        </mxCell>
        <mxCell id="vbey21bKtDM6WdkLPHSO-22" value="+1 groene bal" style="whiteSpace=wrap;strokeWidth=2;fillColor=#d5e8d4;strokeColor=#82b366;" vertex="1" parent="1">
          <mxGeometry x="1082" y="2989" width="158" height="54" as="geometry" />
        </mxCell>
        <mxCell id="vbey21bKtDM6WdkLPHSO-23" value="+1 rode bal" style="whiteSpace=wrap;strokeWidth=2;fillColor=#d5e8d4;strokeColor=#82b366;" vertex="1" parent="1">
          <mxGeometry x="1289" y="2989" width="141" height="54" as="geometry" />
        </mxCell>
        <mxCell id="vbey21bKtDM6WdkLPHSO-24" value="Markeer getal op kaart" style="whiteSpace=wrap;strokeWidth=2;fillColor=#d5e8d4;strokeColor=#82b366;" vertex="1" parent="1">
          <mxGeometry x="1480" y="2989" width="223" height="54" as="geometry" />
        </mxCell>
        <mxCell id="vbey21bKtDM6WdkLPHSO-25" value="Toon bingo-kaart" style="whiteSpace=wrap;strokeWidth=2;fillColor=#d5e8d4;strokeColor=#82b366;" vertex="1" parent="1">
          <mxGeometry x="977" y="3093" width="180" height="54" as="geometry" />
        </mxCell>
        <mxCell id="vbey21bKtDM6WdkLPHSO-26" value="Check op winst of verlies" style="whiteSpace=wrap;strokeWidth=2;fillColor=#d5e8d4;strokeColor=#82b366;" vertex="1" parent="1">
          <mxGeometry x="948" y="3197" width="240" height="54" as="geometry" />
        </mxCell>
        <mxCell id="vbey21bKtDM6WdkLPHSO-27" value="Einde van het spel" style="whiteSpace=wrap;strokeWidth=2;fillColor=#d5e8d4;strokeColor=#82b366;" vertex="1" parent="1">
          <mxGeometry x="972" y="3335" width="192" height="54" as="geometry" />
        </mxCell>
        <mxCell id="vbey21bKtDM6WdkLPHSO-28" value="Wissel naar ander team" style="whiteSpace=wrap;strokeWidth=2;fillColor=#d5e8d4;strokeColor=#82b366;" vertex="1" parent="1">
          <mxGeometry x="1869" y="3335" width="228" height="54" as="geometry" />
        </mxCell>
        <mxCell id="vbey21bKtDM6WdkLPHSO-29" value="Toon gekleurde feedback" style="whiteSpace=wrap;strokeWidth=2;fillColor=#d5e8d4;strokeColor=#82b366;" vertex="1" parent="1">
          <mxGeometry x="1447" y="2100" width="239" height="54" as="geometry" />
        </mxCell>
        <mxCell id="vbey21bKtDM6WdkLPHSO-30" value="Woord is niet geraden" style="whiteSpace=wrap;strokeWidth=2;fillColor=#d5e8d4;strokeColor=#82b366;" vertex="1" parent="1">
          <mxGeometry x="1673" y="1696" width="217" height="54" as="geometry" />
        </mxCell>
        <mxCell id="vbey21bKtDM6WdkLPHSO-31" value="+1 foute beurt" style="whiteSpace=wrap;strokeWidth=2;fillColor=#d5e8d4;strokeColor=#82b366;" vertex="1" parent="1">
          <mxGeometry x="1700" y="1898" width="164" height="54" as="geometry" />
        </mxCell>
        <mxCell id="vbey21bKtDM6WdkLPHSO-32" value="Check op verlies" style="whiteSpace=wrap;strokeWidth=2;fillColor=#d5e8d4;strokeColor=#82b366;" vertex="1" parent="1">
          <mxGeometry x="1818" y="2100" width="177" height="54" as="geometry" />
        </mxCell>
        <mxCell id="vbey21bKtDM6WdkLPHSO-33" value="Wissel naar ander team" style="whiteSpace=wrap;strokeWidth=2;fillColor=#d5e8d4;strokeColor=#82b366;" vertex="1" parent="1">
          <mxGeometry x="2176" y="2238" width="228" height="54" as="geometry" />
        </mxCell>
        <mxCell id="vbey21bKtDM6WdkLPHSO-34" value="Ballenbak is leeg - spel afgelopen" style="whiteSpace=wrap;strokeWidth=2;fillColor=#d5e8d4;strokeColor=#82b366;" vertex="1" parent="1">
          <mxGeometry x="2148" y="3323" width="260" height="78" as="geometry" />
        </mxCell>
        <mxCell id="vbey21bKtDM6WdkLPHSO-35" value="Opnieuw spelen?" style="rhombus;strokeWidth=2;whiteSpace=wrap;fillColor=#dae8fc;strokeColor=#6c8ebf;" vertex="1" parent="1">
          <mxGeometry x="2123" y="3451" width="173" height="173" as="geometry" />
        </mxCell>
        <mxCell id="vbey21bKtDM6WdkLPHSO-36" value="Tot de volgende keer!" style="whiteSpace=wrap;strokeWidth=2;fillColor=#f8cecc;strokeColor=#b85450;" vertex="1" parent="1">
          <mxGeometry x="2102" y="3697" width="216" height="54" as="geometry" />
        </mxCell>
        <mxCell id="vbey21bKtDM6WdkLPHSO-37" value="" style="whiteSpace=wrap;strokeWidth=2;" vertex="1" parent="1">
          <mxGeometry x="976" y="1925" as="geometry" />
        </mxCell>
        <mxCell id="vbey21bKtDM6WdkLPHSO-38" value="" style="whiteSpace=wrap;strokeWidth=2;" vertex="1" parent="1">
          <mxGeometry x="1382" y="2127" as="geometry" />
        </mxCell>
        <mxCell id="vbey21bKtDM6WdkLPHSO-39" value="" style="curved=1;startArrow=none;endArrow=block;exitX=0;exitY=0.77;entryX=0.5;entryY=0;rounded=0;" edge="1" parent="1" source="vbey21bKtDM6WdkLPHSO-1" target="vbey21bKtDM6WdkLPHSO-2">
          <mxGeometry relative="1" as="geometry">
            <Array as="points">
              <mxPoint x="2153" y="379" />
            </Array>
          </mxGeometry>
        </mxCell>
        <mxCell id="vbey21bKtDM6WdkLPHSO-40" value="" style="curved=1;startArrow=none;endArrow=block;exitX=0.5;exitY=1;entryX=0.5;entryY=0;rounded=0;" edge="1" parent="1" source="vbey21bKtDM6WdkLPHSO-2" target="vbey21bKtDM6WdkLPHSO-3">
          <mxGeometry relative="1" as="geometry">
            <Array as="points" />
          </mxGeometry>
        </mxCell>
        <mxCell id="vbey21bKtDM6WdkLPHSO-41" value="" style="curved=1;startArrow=none;endArrow=block;exitX=0.5;exitY=1;entryX=0.5;entryY=0;rounded=0;" edge="1" parent="1" source="vbey21bKtDM6WdkLPHSO-3" target="vbey21bKtDM6WdkLPHSO-4">
          <mxGeometry relative="1" as="geometry">
            <Array as="points" />
          </mxGeometry>
        </mxCell>
        <mxCell id="vbey21bKtDM6WdkLPHSO-42" value="" style="curved=1;startArrow=none;endArrow=block;exitX=0.5;exitY=1;entryX=0.5;entryY=0;rounded=0;" edge="1" parent="1" source="vbey21bKtDM6WdkLPHSO-4" target="vbey21bKtDM6WdkLPHSO-5">
          <mxGeometry relative="1" as="geometry">
            <Array as="points" />
          </mxGeometry>
        </mxCell>
        <mxCell id="vbey21bKtDM6WdkLPHSO-43" value="Nee" style="curved=1;startArrow=none;endArrow=block;exitX=0;exitY=0.6;entryX=0.5;entryY=0;rounded=0;" edge="1" parent="1" source="vbey21bKtDM6WdkLPHSO-5" target="vbey21bKtDM6WdkLPHSO-6">
          <mxGeometry relative="1" as="geometry">
            <Array as="points">
              <mxPoint x="1466" y="979" />
            </Array>
          </mxGeometry>
        </mxCell>
        <mxCell id="vbey21bKtDM6WdkLPHSO-44" value="" style="curved=1;startArrow=none;endArrow=block;exitX=0.5;exitY=1;entryX=0.5;entryY=0;rounded=0;" edge="1" parent="1" source="vbey21bKtDM6WdkLPHSO-6" target="vbey21bKtDM6WdkLPHSO-7">
          <mxGeometry relative="1" as="geometry">
            <Array as="points" />
          </mxGeometry>
        </mxCell>
        <mxCell id="vbey21bKtDM6WdkLPHSO-45" value="" style="curved=1;startArrow=none;endArrow=block;exitX=0.5;exitY=1;entryX=0.5;entryY=0;rounded=0;" edge="1" parent="1" source="vbey21bKtDM6WdkLPHSO-7" target="vbey21bKtDM6WdkLPHSO-8">
          <mxGeometry relative="1" as="geometry">
            <Array as="points" />
          </mxGeometry>
        </mxCell>
        <mxCell id="vbey21bKtDM6WdkLPHSO-46" value="" style="curved=1;startArrow=none;endArrow=block;exitX=0.5;exitY=1;entryX=0.5;entryY=0;rounded=0;" edge="1" parent="1" source="vbey21bKtDM6WdkLPHSO-8" target="vbey21bKtDM6WdkLPHSO-9">
          <mxGeometry relative="1" as="geometry">
            <Array as="points" />
          </mxGeometry>
        </mxCell>
        <mxCell id="vbey21bKtDM6WdkLPHSO-47" value="" style="curved=1;startArrow=none;endArrow=block;exitX=0.5;exitY=1;entryX=0.5;entryY=0;rounded=0;" edge="1" parent="1" source="vbey21bKtDM6WdkLPHSO-9" target="vbey21bKtDM6WdkLPHSO-10">
          <mxGeometry relative="1" as="geometry">
            <Array as="points" />
          </mxGeometry>
        </mxCell>
        <mxCell id="vbey21bKtDM6WdkLPHSO-48" value="Ja" style="curved=1;startArrow=none;endArrow=block;exitX=0;exitY=0.7;entryX=0.5;entryY=-0.01;rounded=0;" edge="1" parent="1" source="vbey21bKtDM6WdkLPHSO-10" target="vbey21bKtDM6WdkLPHSO-11">
          <mxGeometry relative="1" as="geometry">
            <Array as="points">
              <mxPoint x="1130" y="1659" />
            </Array>
          </mxGeometry>
        </mxCell>
        <mxCell id="vbey21bKtDM6WdkLPHSO-49" value="" style="curved=1;startArrow=none;endArrow=none;exitX=0.24;exitY=0.99;entryX=Infinity;entryY=-Infinity;rounded=0;" edge="1" parent="1" source="vbey21bKtDM6WdkLPHSO-11" target="vbey21bKtDM6WdkLPHSO-37">
          <mxGeometry relative="1" as="geometry">
            <Array as="points">
              <mxPoint x="976" y="1786" />
            </Array>
          </mxGeometry>
        </mxCell>
        <mxCell id="vbey21bKtDM6WdkLPHSO-50" value="Fout" style="curved=1;startArrow=none;endArrow=none;exitX=Infinity;exitY=-Infinity;entryX=Infinity;entryY=-Infinity;rounded=0;" edge="1" parent="1" source="vbey21bKtDM6WdkLPHSO-37" target="vbey21bKtDM6WdkLPHSO-38">
          <mxGeometry relative="1" as="geometry">
            <Array as="points">
              <mxPoint x="976" y="2063" />
            </Array>
          </mxGeometry>
        </mxCell>
        <mxCell id="vbey21bKtDM6WdkLPHSO-51" value="" style="curved=1;startArrow=none;endArrow=block;exitX=Infinity;exitY=-Infinity;entryX=1;entryY=0.82;rounded=0;" edge="1" parent="1" source="vbey21bKtDM6WdkLPHSO-38" target="vbey21bKtDM6WdkLPHSO-11">
          <mxGeometry relative="1" as="geometry">
            <Array as="points">
              <mxPoint x="1582" y="2063" />
              <mxPoint x="1582" y="1786" />
            </Array>
          </mxGeometry>
        </mxCell>
        <mxCell id="vbey21bKtDM6WdkLPHSO-52" value="Correcte lengte" style="curved=1;startArrow=none;endArrow=block;exitX=0.51;exitY=0.99;entryX=0.5;entryY=0;rounded=0;" edge="1" parent="1" source="vbey21bKtDM6WdkLPHSO-11" target="vbey21bKtDM6WdkLPHSO-12">
          <mxGeometry relative="1" as="geometry">
            <Array as="points">
              <mxPoint x="1137" y="1786" />
            </Array>
          </mxGeometry>
        </mxCell>
        <mxCell id="vbey21bKtDM6WdkLPHSO-53" value="Ja" style="curved=1;startArrow=none;endArrow=block;exitX=0.28;exitY=1;entryX=0.74;entryY=-0.01;rounded=0;" edge="1" parent="1" source="vbey21bKtDM6WdkLPHSO-12" target="vbey21bKtDM6WdkLPHSO-13">
          <mxGeometry relative="1" as="geometry">
            <Array as="points">
              <mxPoint x="1076" y="2063" />
            </Array>
          </mxGeometry>
        </mxCell>
        <mxCell id="vbey21bKtDM6WdkLPHSO-54" value="" style="curved=1;startArrow=none;endArrow=block;exitX=0.5;exitY=0.99;entryX=0.5;entryY=0;rounded=0;" edge="1" parent="1" source="vbey21bKtDM6WdkLPHSO-13" target="vbey21bKtDM6WdkLPHSO-14">
          <mxGeometry relative="1" as="geometry">
            <Array as="points" />
          </mxGeometry>
        </mxCell>
        <mxCell id="vbey21bKtDM6WdkLPHSO-55" value="" style="curved=1;startArrow=none;endArrow=block;exitX=0.5;exitY=1;entryX=0.5;entryY=0;rounded=0;" edge="1" parent="1" source="vbey21bKtDM6WdkLPHSO-14" target="vbey21bKtDM6WdkLPHSO-15">
          <mxGeometry relative="1" as="geometry">
            <Array as="points" />
          </mxGeometry>
        </mxCell>
        <mxCell id="vbey21bKtDM6WdkLPHSO-56" value="" style="curved=1;startArrow=none;endArrow=block;exitX=0.5;exitY=1;entryX=0.5;entryY=0;rounded=0;" edge="1" parent="1" source="vbey21bKtDM6WdkLPHSO-15" target="vbey21bKtDM6WdkLPHSO-16">
          <mxGeometry relative="1" as="geometry">
            <Array as="points" />
          </mxGeometry>
        </mxCell>
        <mxCell id="vbey21bKtDM6WdkLPHSO-57" value="Groen" style="curved=1;startArrow=none;endArrow=block;exitX=0;exitY=0.61;entryX=0.5;entryY=0;rounded=0;" edge="1" parent="1" source="vbey21bKtDM6WdkLPHSO-16" target="vbey21bKtDM6WdkLPHSO-17">
          <mxGeometry relative="1" as="geometry">
            <Array as="points">
              <mxPoint x="489" y="2624" />
            </Array>
          </mxGeometry>
        </mxCell>
        <mxCell id="vbey21bKtDM6WdkLPHSO-58" value="Rood" style="curved=1;startArrow=none;endArrow=block;exitX=0;exitY=0.69;entryX=0.5;entryY=0;rounded=0;" edge="1" parent="1" source="vbey21bKtDM6WdkLPHSO-16" target="vbey21bKtDM6WdkLPHSO-18">
          <mxGeometry relative="1" as="geometry">
            <Array as="points">
              <mxPoint x="688" y="2624" />
            </Array>
          </mxGeometry>
        </mxCell>
        <mxCell id="vbey21bKtDM6WdkLPHSO-59" value="Getal" style="curved=1;startArrow=none;endArrow=block;exitX=0.35;exitY=1;entryX=0.5;entryY=0;rounded=0;" edge="1" parent="1" source="vbey21bKtDM6WdkLPHSO-16" target="vbey21bKtDM6WdkLPHSO-19">
          <mxGeometry relative="1" as="geometry">
            <Array as="points">
              <mxPoint x="920" y="2624" />
            </Array>
          </mxGeometry>
        </mxCell>
        <mxCell id="vbey21bKtDM6WdkLPHSO-60" value="Niet rood" style="curved=1;startArrow=none;endArrow=block;exitX=1;exitY=0.6;entryX=0.5;entryY=0.01;rounded=0;" edge="1" parent="1" source="vbey21bKtDM6WdkLPHSO-16" target="vbey21bKtDM6WdkLPHSO-20">
          <mxGeometry relative="1" as="geometry">
            <Array as="points">
              <mxPoint x="1453" y="2624" />
            </Array>
          </mxGeometry>
        </mxCell>
        <mxCell id="vbey21bKtDM6WdkLPHSO-61" value="" style="curved=1;startArrow=none;endArrow=block;exitX=0.5;exitY=1.01;entryX=0.5;entryY=0;rounded=0;" edge="1" parent="1" source="vbey21bKtDM6WdkLPHSO-20" target="vbey21bKtDM6WdkLPHSO-21">
          <mxGeometry relative="1" as="geometry">
            <Array as="points" />
          </mxGeometry>
        </mxCell>
        <mxCell id="vbey21bKtDM6WdkLPHSO-62" value="Groen" style="curved=1;startArrow=none;endArrow=block;exitX=0;exitY=0.67;entryX=0.5;entryY=0;rounded=0;" edge="1" parent="1" source="vbey21bKtDM6WdkLPHSO-21" target="vbey21bKtDM6WdkLPHSO-22">
          <mxGeometry relative="1" as="geometry">
            <Array as="points">
              <mxPoint x="1161" y="2953" />
            </Array>
          </mxGeometry>
        </mxCell>
        <mxCell id="vbey21bKtDM6WdkLPHSO-63" value="Rood" style="curved=1;startArrow=none;endArrow=block;exitX=0.04;exitY=1;entryX=0.5;entryY=0;rounded=0;" edge="1" parent="1" source="vbey21bKtDM6WdkLPHSO-21" target="vbey21bKtDM6WdkLPHSO-23">
          <mxGeometry relative="1" as="geometry">
            <Array as="points">
              <mxPoint x="1360" y="2953" />
            </Array>
          </mxGeometry>
        </mxCell>
        <mxCell id="vbey21bKtDM6WdkLPHSO-64" value="Getal" style="curved=1;startArrow=none;endArrow=block;exitX=1;exitY=0.86;entryX=0.5;entryY=0;rounded=0;" edge="1" parent="1" source="vbey21bKtDM6WdkLPHSO-21" target="vbey21bKtDM6WdkLPHSO-24">
          <mxGeometry relative="1" as="geometry">
            <Array as="points">
              <mxPoint x="1592" y="2953" />
            </Array>
          </mxGeometry>
        </mxCell>
        <mxCell id="vbey21bKtDM6WdkLPHSO-65" value="" style="curved=1;startArrow=none;endArrow=block;exitX=1;exitY=0.67;entryX=1;entryY=0.37;rounded=0;" edge="1" parent="1" source="vbey21bKtDM6WdkLPHSO-21" target="vbey21bKtDM6WdkLPHSO-25">
          <mxGeometry relative="1" as="geometry">
            <Array as="points">
              <mxPoint x="1739" y="2953" />
              <mxPoint x="1739" y="3068" />
            </Array>
          </mxGeometry>
        </mxCell>
        <mxCell id="vbey21bKtDM6WdkLPHSO-66" value="" style="curved=1;startArrow=none;endArrow=block;exitX=0.5;exitY=1;entryX=0.08;entryY=0;rounded=0;" edge="1" parent="1" source="vbey21bKtDM6WdkLPHSO-19" target="vbey21bKtDM6WdkLPHSO-25">
          <mxGeometry relative="1" as="geometry">
            <Array as="points">
              <mxPoint x="920" y="3068" />
            </Array>
          </mxGeometry>
        </mxCell>
        <mxCell id="vbey21bKtDM6WdkLPHSO-67" value="" style="curved=1;startArrow=none;endArrow=block;exitX=0.5;exitY=1;entryX=0;entryY=0.27;rounded=0;" edge="1" parent="1" source="vbey21bKtDM6WdkLPHSO-18" target="vbey21bKtDM6WdkLPHSO-25">
          <mxGeometry relative="1" as="geometry">
            <Array as="points">
              <mxPoint x="688" y="3068" />
            </Array>
          </mxGeometry>
        </mxCell>
        <mxCell id="vbey21bKtDM6WdkLPHSO-68" value="" style="curved=1;startArrow=none;endArrow=block;exitX=0.5;exitY=1;entryX=0;entryY=0.35;rounded=0;" edge="1" parent="1" source="vbey21bKtDM6WdkLPHSO-17" target="vbey21bKtDM6WdkLPHSO-25">
          <mxGeometry relative="1" as="geometry">
            <Array as="points">
              <mxPoint x="489" y="3068" />
            </Array>
          </mxGeometry>
        </mxCell>
        <mxCell id="vbey21bKtDM6WdkLPHSO-69" value="" style="curved=1;startArrow=none;endArrow=block;exitX=0.5;exitY=1;entryX=1;entryY=0.2;rounded=0;" edge="1" parent="1" source="vbey21bKtDM6WdkLPHSO-23" target="vbey21bKtDM6WdkLPHSO-25">
          <mxGeometry relative="1" as="geometry">
            <Array as="points">
              <mxPoint x="1360" y="3068" />
            </Array>
          </mxGeometry>
        </mxCell>
        <mxCell id="vbey21bKtDM6WdkLPHSO-70" value="" style="curved=1;startArrow=none;endArrow=block;exitX=0.5;exitY=1;entryX=0.77;entryY=0;rounded=0;" edge="1" parent="1" source="vbey21bKtDM6WdkLPHSO-22" target="vbey21bKtDM6WdkLPHSO-25">
          <mxGeometry relative="1" as="geometry">
            <Array as="points">
              <mxPoint x="1161" y="3068" />
            </Array>
          </mxGeometry>
        </mxCell>
        <mxCell id="vbey21bKtDM6WdkLPHSO-71" value="" style="curved=1;startArrow=none;endArrow=block;exitX=0.5;exitY=1;entryX=0.5;entryY=0;rounded=0;" edge="1" parent="1" source="vbey21bKtDM6WdkLPHSO-25" target="vbey21bKtDM6WdkLPHSO-26">
          <mxGeometry relative="1" as="geometry">
            <Array as="points" />
          </mxGeometry>
        </mxCell>
        <mxCell id="vbey21bKtDM6WdkLPHSO-72" value="Winst of verlies" style="curved=1;startArrow=none;endArrow=block;exitX=0.47;exitY=1;entryX=0.47;entryY=0.01;rounded=0;" edge="1" parent="1" source="vbey21bKtDM6WdkLPHSO-26" target="vbey21bKtDM6WdkLPHSO-27">
          <mxGeometry relative="1" as="geometry">
            <Array as="points">
              <mxPoint x="1053" y="3287" />
            </Array>
          </mxGeometry>
        </mxCell>
        <mxCell id="vbey21bKtDM6WdkLPHSO-73" value="Geen einde" style="curved=1;startArrow=none;endArrow=block;exitX=1;exitY=0.73;entryX=0.03;entryY=0.01;rounded=0;" edge="1" parent="1" source="vbey21bKtDM6WdkLPHSO-26" target="vbey21bKtDM6WdkLPHSO-28">
          <mxGeometry relative="1" as="geometry">
            <Array as="points">
              <mxPoint x="1683" y="3287" />
            </Array>
          </mxGeometry>
        </mxCell>
        <mxCell id="vbey21bKtDM6WdkLPHSO-74" value="" style="curved=1;startArrow=none;endArrow=block;exitX=1;exitY=0.16;entryX=1;entryY=0.74;rounded=0;" edge="1" parent="1" source="vbey21bKtDM6WdkLPHSO-28" target="vbey21bKtDM6WdkLPHSO-5">
          <mxGeometry relative="1" as="geometry">
            <Array as="points">
              <mxPoint x="2440" y="3287" />
              <mxPoint x="2440" y="979" />
            </Array>
          </mxGeometry>
        </mxCell>
        <mxCell id="vbey21bKtDM6WdkLPHSO-75" value="Nee" style="curved=1;startArrow=none;endArrow=block;exitX=1;exitY=0.69;entryX=0.37;entryY=-0.01;rounded=0;" edge="1" parent="1" source="vbey21bKtDM6WdkLPHSO-12" target="vbey21bKtDM6WdkLPHSO-29">
          <mxGeometry relative="1" as="geometry">
            <Array as="points">
              <mxPoint x="1495" y="2063" />
            </Array>
          </mxGeometry>
        </mxCell>
        <mxCell id="vbey21bKtDM6WdkLPHSO-76" value="" style="curved=1;startArrow=none;endArrow=block;exitX=1;exitY=0.1;entryX=1;entryY=0.64;rounded=0;" edge="1" parent="1" source="vbey21bKtDM6WdkLPHSO-29" target="vbey21bKtDM6WdkLPHSO-10">
          <mxGeometry relative="1" as="geometry">
            <Array as="points">
              <mxPoint x="1925" y="2063" />
              <mxPoint x="1925" y="1659" />
            </Array>
          </mxGeometry>
        </mxCell>
        <mxCell id="vbey21bKtDM6WdkLPHSO-77" value="Nee" style="curved=1;startArrow=none;endArrow=block;exitX=1;exitY=0.71;entryX=0.5;entryY=-0.01;rounded=0;" edge="1" parent="1" source="vbey21bKtDM6WdkLPHSO-10" target="vbey21bKtDM6WdkLPHSO-30">
          <mxGeometry relative="1" as="geometry">
            <Array as="points">
              <mxPoint x="1782" y="1659" />
            </Array>
          </mxGeometry>
        </mxCell>
        <mxCell id="vbey21bKtDM6WdkLPHSO-78" value="" style="curved=1;startArrow=none;endArrow=block;exitX=0.5;exitY=0.99;entryX=0.5;entryY=-0.01;rounded=0;" edge="1" parent="1" source="vbey21bKtDM6WdkLPHSO-30" target="vbey21bKtDM6WdkLPHSO-31">
          <mxGeometry relative="1" as="geometry">
            <Array as="points" />
          </mxGeometry>
        </mxCell>
        <mxCell id="vbey21bKtDM6WdkLPHSO-79" value="" style="curved=1;startArrow=none;endArrow=block;exitX=0.5;exitY=0.99;entryX=0.2;entryY=-0.01;rounded=0;" edge="1" parent="1" source="vbey21bKtDM6WdkLPHSO-31" target="vbey21bKtDM6WdkLPHSO-32">
          <mxGeometry relative="1" as="geometry">
            <Array as="points">
              <mxPoint x="1782" y="2063" />
            </Array>
          </mxGeometry>
        </mxCell>
        <mxCell id="vbey21bKtDM6WdkLPHSO-80" value="Verloren" style="curved=1;startArrow=none;endArrow=block;exitX=0.3;exitY=0.99;entryX=1;entryY=0.33;rounded=0;" edge="1" parent="1" source="vbey21bKtDM6WdkLPHSO-32" target="vbey21bKtDM6WdkLPHSO-27">
          <mxGeometry relative="1" as="geometry">
            <Array as="points">
              <mxPoint x="1826" y="2190" />
              <mxPoint x="1826" y="3287" />
            </Array>
          </mxGeometry>
        </mxCell>
        <mxCell id="vbey21bKtDM6WdkLPHSO-81" value="Niet verloren" style="curved=1;startArrow=none;endArrow=block;exitX=0.6;exitY=0.99;entryX=0;entryY=0.04;rounded=0;" edge="1" parent="1" source="vbey21bKtDM6WdkLPHSO-32" target="vbey21bKtDM6WdkLPHSO-33">
          <mxGeometry relative="1" as="geometry">
            <Array as="points">
              <mxPoint x="1948" y="2190" />
            </Array>
          </mxGeometry>
        </mxCell>
        <mxCell id="vbey21bKtDM6WdkLPHSO-82" value="" style="curved=1;startArrow=none;endArrow=block;exitX=0.77;exitY=0;entryX=1;entryY=0.72;rounded=0;" edge="1" parent="1" source="vbey21bKtDM6WdkLPHSO-33" target="vbey21bKtDM6WdkLPHSO-5">
          <mxGeometry relative="1" as="geometry">
            <Array as="points">
              <mxPoint x="2460" y="2190" />
              <mxPoint x="2460" y="979" />
            </Array>
          </mxGeometry>
        </mxCell>
        <mxCell id="vbey21bKtDM6WdkLPHSO-83" value="Ja" style="curved=1;startArrow=none;endArrow=block;exitX=0.46;exitY=1;entryX=0.23;entryY=0;rounded=0;" edge="1" parent="1" source="vbey21bKtDM6WdkLPHSO-5" target="vbey21bKtDM6WdkLPHSO-34">
          <mxGeometry relative="1" as="geometry">
            <Array as="points">
              <mxPoint x="2141" y="979" />
              <mxPoint x="2141" y="3287" />
            </Array>
          </mxGeometry>
        </mxCell>
        <mxCell id="vbey21bKtDM6WdkLPHSO-84" value="" style="curved=1;startArrow=none;endArrow=block;exitX=0.5;exitY=1;entryX=0.81;entryY=0;rounded=0;" edge="1" parent="1" source="vbey21bKtDM6WdkLPHSO-34" target="vbey21bKtDM6WdkLPHSO-35">
          <mxGeometry relative="1" as="geometry">
            <Array as="points">
              <mxPoint x="2278" y="3426" />
            </Array>
          </mxGeometry>
        </mxCell>
        <mxCell id="vbey21bKtDM6WdkLPHSO-85" value="" style="curved=1;startArrow=none;endArrow=block;exitX=0.5;exitY=1.01;entryX=0;entryY=0.45;rounded=0;" edge="1" parent="1" source="vbey21bKtDM6WdkLPHSO-27" target="vbey21bKtDM6WdkLPHSO-35">
          <mxGeometry relative="1" as="geometry">
            <Array as="points">
              <mxPoint x="1068" y="3426" />
            </Array>
          </mxGeometry>
        </mxCell>
        <mxCell id="vbey21bKtDM6WdkLPHSO-86" value="Ja" style="curved=1;startArrow=none;endArrow=block;exitX=1;exitY=0.34;entryX=0.99;entryY=0.86;rounded=0;" edge="1" parent="1" source="vbey21bKtDM6WdkLPHSO-35" target="vbey21bKtDM6WdkLPHSO-1">
          <mxGeometry relative="1" as="geometry">
            <Array as="points">
              <mxPoint x="2557" y="3426" />
              <mxPoint x="2557" y="379" />
            </Array>
          </mxGeometry>
        </mxCell>
        <mxCell id="vbey21bKtDM6WdkLPHSO-87" value="Nee" style="curved=1;startArrow=none;endArrow=block;exitX=0.5;exitY=1;entryX=0.5;entryY=0;rounded=0;" edge="1" parent="1" source="vbey21bKtDM6WdkLPHSO-35" target="vbey21bKtDM6WdkLPHSO-36">
          <mxGeometry relative="1" as="geometry">
            <Array as="points" />
          </mxGeometry>
        </mxCell>
      </root>
    </mxGraphModel>
  </diagram>
</mxfile>
